# xmcd
#
# Track frame offsets: 
#        182
#        19075
#        39115
#        67052
#        93207
#        114402
#        134870
#        169660
#        185145
#        201262
#        215742
#        231325
#        248225
#        270095
#
# Disc length: 3859 seconds
#
# Revision: 0
# Processed by: cddbd v1.5PL3 Copyright (c) Steve Scherf et al.
# Submitted via: ExactAudioCopy v0.95a5
#
DISCID=cb0f110e
DTITLE=Jerry Jeff Walker - Great Gonzos
DYEAR=1900
DGENRE=
TTITLE0=Gettin' By
TTITLE1=Sangria Wine
TTITLE2=Mr. Bojangles
TTITLE3=Desperados Waiting for the Train
TTITLE4=Pick Up The Tempo
TTITLE5=Up Against the Wall Redneck
TTITLE6=London Homesick Blues
TTITLE7=Takin' It As It Comes
TTITLE8=Backsliders Wine
TTITLE9=Old Five and Dimers Like Me
TTITLE10=Charlie Dunn
TTITLE11=Railroad Lady
TTITLE12=L.A. Freeway
TTITLE13=Don't It Make You Wanna Dance
EXTD=
EXTT0=
EXTT1=
EXTT2=
EXTT3=
EXTT4=
EXTT5=
EXTT6=
EXTT7=
EXTT8=
EXTT9=
EXTT10=
EXTT11=
EXTT12=
EXTT13=
PLAYORDER=
